<?xml version="1.0" encoding="UTF-8" standalone="no"?>
<svg
   version="1.0"
   width="427pt"
   height="151pt"
   viewBox="0 0 427 151"
   preserveAspectRatio="xMidYMid"
   id="svg323"
   xmlns="http://www.w3.org/2000/svg"
   xmlns:svg="http://www.w3.org/2000/svg">
  <defs
     id="defs327" />
  <path
     d="m 211.86427,4.0620981 c -0.73983,1.0243914 -1.33739,1.9634145 -1.33739,2.1056912 0,0.1422768 -0.54065,0.7398323 -1.16666,1.3658477 -1.5935,1.50813 -4.12601,5.378039 -4.8374,7.426816 -0.313,0.939023 -1.08129,3.955272 -1.67885,6.715433 -1.56504,7.170711 -1.62195,7.341448 -2.76016,8.365834 -0.79674,0.739838 -1.47967,0.995931 -3.86991,1.508124 -5.7195,1.166668 -7.08535,1.308945 -13.85769,1.280485 -12.43494,-0.02845 -27.28856,-2.247962 -45.38608,-6.800795 -6.8008,-1.707315 -7.62601,-1.849592 -10.38616,-1.849592 -1.65041,0.02845 -3.813,0.199191 -4.83739,0.42683 -3.01625,0.65447 -4.58129,0.540647 -7.51218,-0.540647 -7.54063,-2.845523 -19.747923,-5.292677 -26.264171,-5.292677 -4.524379,0 -10.869895,1.166669 -17.955244,3.300808 -2.646338,0.825201 -2.646338,0.825201 -0.682924,3.044709 0.569101,0.626015 0.825201,1.0813 0.569101,0.967477 -0.256093,-0.08536 -1.9065,0.02845 -3.699178,0.2561 -12.776395,1.621946 -20.715405,4.04064 -20.715405,6.288602 0,0.995931 1.821138,2.731701 3.556907,3.357716 0.796747,0.284554 1.536579,0.597561 1.650402,0.711384 0.142276,0.113817 -0.626016,0.426825 -1.707316,0.682924 -3.044708,0.768292 -8.052826,2.447147 -9.532496,3.186985 -2.077231,1.05284 -2.33333,2.020317 -0.995937,3.926818 1.0813,1.50813 3.329262,2.646338 6.886169,3.443084 0.768287,0.170731 0.597556,0.284554 -2.33333,1.707316 -2.532516,1.252025 -3.186986,1.678855 -3.471539,2.390239 -0.284554,0.682924 -0.284554,0.995931 0.02845,1.621947 0.910569,1.9065 4.581293,3.642264 8.394294,4.012186 0.995931,0.08536 1.792678,0.256093 1.792678,0.341461 -0.02846,0.08536 -1.337394,0.796747 -2.930887,1.593493 -3.130077,1.536584 -3.841455,2.276417 -3.499993,3.64227 0.455285,1.87804 5.520311,3.642264 10.556888,3.727632 1.735769,0 3.699178,-0.08537 4.382102,-0.199185 1.109754,-0.199185 1.223577,-0.170731 1.024391,0.284554 -0.142276,0.284548 -0.284553,0.995931 -0.369921,1.593492 -0.256094,2.191049 1.109754,2.987795 6.459339,3.756087 1.650401,0.227639 3.471539,0.455285 4.012186,0.483739 0.711378,0.05691 0.967477,0.199185 0.910568,0.512193 -0.19919,0.8252 0.256094,2.276416 0.967478,3.130077 0.882109,1.052839 3.556901,1.9065 6.772341,2.219508 l 2.247962,0.199185 0.341462,1.422762 c 0.768292,3.016254 4.524385,5.12194 8.906487,4.951209 1.849592,-0.08537 2.390239,0 3.186985,0.512192 1.792678,1.0813 3.670724,1.536585 6.060963,1.479671 l 2.219508,-0.05691 0.85366,1.052846 c 1.76422,2.13414 5.03658,3.243894 8.08128,2.788609 0.93902,-0.142277 1.90651,-0.113822 2.84552,0.142277 0.79675,0.199185 1.82114,0.369916 2.33333,0.369916 0.8252,0 0.93903,0.113823 1.22358,1.109754 0.42682,1.593493 1.96341,3.727632 3.13007,4.353648 1.10976,0.569107 3.15853,0.682929 4.52439,0.199191 0.8252,-0.284554 0.96747,-0.227645 2.02031,0.711378 0.62602,0.540647 1.62195,1.223576 2.19106,1.47967 1.36584,0.597558 3.86991,0.654468 5.40649,0.142277 1.13821,-0.369916 1.22357,-0.369916 2.07723,0.341462 1.22357,1.052849 2.87398,1.508129 4.21137,1.166669 0.73984,-0.19919 1.42276,-0.17073 2.33333,0.11382 0.8252,0.2561 1.9065,0.313 3.01626,0.22764 1.3943,-0.14228 1.82113,-0.0854 2.10568,0.28456 0.62602,0.73983 2.4756,1.53657 3.5569,1.53657 1.19512,0 2.6748,-0.5691 3.2439,-1.22357 0.34146,-0.45528 0.45528,-0.39837 1.3374,0.36992 1.73576,1.50812 3.18698,2.10568 5.23575,2.10568 2.13415,0 3.67073,-0.65447 5.23577,-2.24796 l 0.99593,-0.99593 1.22357,0.5691 c 1.53659,0.71139 3.44309,0.71139 4.92276,0.0285 1.10975,-0.5122 1.19512,-0.5122 2.13414,0 1.33739,0.71138 2.47561,0.68293 4.09755,-0.14227 0.99594,-0.5122 1.76423,-0.68293 2.95934,-0.65448 1.30894,0.0285 1.9065,-0.11382 2.9878,-0.73983 0.73984,-0.426834 1.3374,-0.882118 1.3374,-1.024395 0,-0.113817 0.73984,-0.227639 1.6504,-0.199185 1.10976,0 1.93496,-0.170731 2.58943,-0.540647 0.51219,-0.313008 1.22357,-0.711384 1.53658,-0.910569 0.73984,-0.42683 0.96748,-0.256099 0.48374,0.341462 -0.28455,0.369922 -0.2561,0.42683 0.19919,0.42683 0.39837,0 0.8252,-0.483738 1.45121,-1.650401 0.88211,-1.621953 0.88211,-1.735769 1.0813,-6.971532 0.11382,-2.902432 0.31301,-5.235762 0.42683,-5.150394 0.11382,0.05691 0.28455,-0.227645 0.36992,-0.65447 0.0569,-0.455284 0.0854,2.048772 0,5.520311 -0.0854,4.012186 -0.0285,6.743887 0.17073,7.45527 0.5691,2.105686 2.56097,3.10162 4.43901,2.247963 l 0.73984,-0.341462 -0.19919,-3.21544 c -0.17073,-2.703247 -0.14227,-3.215445 0.19919,-3.215445 0.31301,0 0.48374,0.768292 0.71138,3.386176 0.19919,2.390239 0.48373,3.784541 0.91057,4.638198 0.91056,1.9065 2.78861,2.73171 4.3821,1.9065 0.93902,-0.51219 0.96748,-0.65446 1.02439,-3.613812 0.0569,-2.845523 0.14228,-3.186985 0.68292,-3.186985 0.2561,0 0.31301,0.939023 0.22765,3.556901 -0.0854,3.898366 0.11381,4.894306 1.33739,5.833326 0.96748,0.76829 2.61788,0.73983 3.61382,-0.0569 1.42276,-1.10974 1.84958,-2.53251 1.84958,-6.430875 0,-2.902432 0.0569,-3.471534 0.42683,-3.471534 0.34146,0 0.42683,0.455279 0.42683,2.276417 0,1.422762 0.14227,2.589424 0.39837,3.073162 1.42277,2.7317 4.5813,2.56097 5.86178,-0.31301 0.42683,-0.967474 1.13821,-5.63413 1.13821,-7.483722 0,-0.227639 0.19918,-0.39837 0.42683,-0.39837 0.48374,0 0.51219,0.483739 0.17073,3.699178 -0.2561,2.447148 0,3.016255 1.53658,3.300808 1.39431,0.256094 2.64634,-0.512198 3.30081,-2.048777 0.54064,-1.166668 0.5691,-1.735769 0.42683,-7.739824 -0.0854,-3.556902 -0.0854,-6.17478 0,-5.833318 0.0854,0.369916 0.25609,0.65447 0.36991,0.65447 0.14228,0 0.31301,2.134139 0.39837,4.780478 0.14228,5.065025 0.31301,5.747955 2.07724,8.764209 0.68292,1.166663 0.79674,1.252025 1.22357,0.853655 0.42683,-0.398376 0.62602,-0.341462 1.87805,0.483739 1.10975,0.739838 1.70731,0.910574 3.04471,0.967474 1.30894,0.0285 1.82113,0.17074 2.50405,0.73984 1.13822,0.96748 2.6748,1.42276 4.18293,1.25203 1.05284,-0.11382 1.47967,0 2.33332,0.5691 0.88211,0.59757 1.28049,0.68293 2.67479,0.59757 0.99593,-0.0854 1.82113,-0.31301 2.10569,-0.56911 0.42683,-0.42683 0.54065,-0.42683 1.47967,0.0854 1.25203,0.68292 3.58536,0.71137 5.1504,0.0854 l 1.13821,-0.45529 1.10975,0.99594 c 1.59349,1.42276 2.70325,1.93496 4.6382,2.10569 2.02032,0.19918 3.813,-0.42683 5.37804,-1.82114 l 1.0813,-0.96748 1.25203,0.71139 c 1.79267,1.0813 3.64227,1.02438 5.4634,-0.14228 1.50812,-0.93902 2.93088,-1.13821 8.30892,-1.10975 2.10569,0.0284 3.32927,-0.36992 4.49593,-1.45122 0.54065,-0.48374 0.68292,-0.48374 1.70731,-0.11382 2.50406,0.88211 5.4634,0.2561 7.71137,-1.650405 0.8252,-0.682924 1.02438,-0.739838 2.87397,-0.569107 1.10976,0.08537 2.33334,0.08537 2.76016,-0.02845 1.53658,-0.369916 3.18699,-2.475602 3.95528,-5.036572 0.19918,-0.65447 4.3821,-1.394308 6.91462,-1.195122 3.01625,0.227645 4.86584,-0.398371 6.88616,-2.361785 1.59349,-1.536579 1.65041,-1.565033 2.93089,-1.394302 1.76422,0.256094 4.35365,-0.256099 6.08942,-1.195122 1.19511,-0.65447 1.79268,-0.768293 3.84145,-0.796747 2.7317,-0.02845 4.95121,-0.626015 6.68698,-1.821132 1.28049,-0.85366 2.41869,-2.646338 2.41869,-3.784546 0,-0.711378 0.0854,-0.739833 1.79268,-0.939023 4.26829,-0.426825 7.22763,-1.479671 7.91055,-2.760156 0.17074,-0.341461 0.34147,-1.166662 0.36992,-1.821132 l 0.0285,-1.223576 1.56504,-0.170731 c 3.07316,-0.313008 7.25608,-1.052846 8.10974,-1.422762 1.42275,-0.597561 1.93495,-1.365853 1.79267,-2.760155 -0.0854,-0.68293 -0.22764,-1.422762 -0.34146,-1.678861 -0.17073,-0.426825 -0.0569,-0.455285 1.02439,-0.227639 3.47154,0.654469 9.10567,0.02845 12.17883,-1.3374 2.10569,-0.967477 2.84553,-1.707309 2.84553,-2.845517 0,-1.223577 -0.91057,-1.963415 -4.12601,-3.386177 l -2.50406,-1.109748 2.67479,-0.540653 c 3.01625,-0.569101 6.03251,-1.934954 6.88616,-3.101617 0.68293,-0.910569 0.73984,-2.276416 0.17073,-2.959346 -0.22764,-0.284553 -1.73576,-1.138208 -3.38617,-1.934954 l -2.95934,-1.422762 2.07723,-0.512193 c 2.30487,-0.569107 4.04064,-1.451216 5.20731,-2.703247 0.91057,-0.967477 1.45121,-2.247962 1.22357,-2.95934 -0.34146,-1.052846 -2.87397,-2.191054 -8.67884,-3.841455 -1.96341,-0.540653 -3.78454,-1.0813 -4.09755,-1.166668 -0.36992,-0.113817 -0.0854,-0.313008 1.10975,-0.825201 1.82113,-0.711378 3.49999,-2.162594 3.75609,-3.186985 0.5122,-2.048777 -5.06503,-4.154463 -15.53655,-5.890232 -2.4187,-0.369916 -5.37804,-0.796746 -6.63007,-0.882109 l -2.24796,-0.199185 0.68292,-0.739838 c 0.8252,-0.882115 1.73577,-2.276417 1.5935,-2.418693 -0.0569,-0.05692 -1.19513,-0.426831 -2.53252,-0.825201 -13.0894,-3.926823 -19.69101,-4.154463 -33.15033,-1.024391 -4.8943,1.109754 -7.02844,1.735769 -10.92681,3.158531 l -3.21544,1.195116 -3.95527,-0.654469 c -5.34959,-0.910563 -7.08536,-0.768287 -14.76827,1.195122 -7.45526,1.934955 -13.88615,3.329262 -20.48776,4.439016 -17.84142,3.044709 -29.50807,3.386171 -39.95113,1.138209 -2.39024,-0.512193 -2.9878,-0.768293 -3.61382,-1.422762 -0.39837,-0.455285 -0.88211,-0.825201 -1.08129,-0.825201 -0.59756,0 -1.36585,-2.276422 -2.44715,-7.256085 -1.36585,-6.459334 -2.50406,-10.158512 -3.2439,-10.670705 -0.11382,-0.08537 -0.59756,-0.796746 -1.05284,-1.565038 -0.45528,-0.7967464 -1.39431,-2.020323 -2.13414,-2.731701 -0.71138,-0.7398379 -1.62195,-1.8780462 -2.04878,-2.56097 -0.39837,-0.6829295 -1.10975,-1.678861 -1.53658,-2.2195081 l -0.8252,-0.9674773 z m 4.41056,2.7886151 c 2.02032,2.1056855 4.49593,5.7764098 4.49593,6.7154328 0,0.256099 -1.84959,0.369916 -7.54064,0.42683 -4.15446,0.05691 -7.54063,-0.02845 -7.54063,-0.170731 0,-0.825206 2.39024,-4.5528386 3.92682,-6.1178771 0.99593,-1.0243857 2.02032,-2.1341397 2.24796,-2.5040559 0.28455,-0.4552844 0.71139,-0.6544752 1.30894,-0.6544752 0.71138,0 1.25203,0.4268302 3.10162,2.3048764 z"
     id="path317"
     style="fill:none;stroke:#000000;stroke-width:1.16197;stroke-dasharray:none;stroke-opacity:1" />
  <path
     d="m 184.00661,115.94804 c -0.17073,0.36992 -0.39838,0.65447 -0.48374,0.5691 -0.11382,-0.0569 -0.88211,1.25203 -1.73577,2.93089 -0.85365,1.67886 -1.6504,3.10162 -1.76422,3.13008 -0.11382,0.0569 -0.17073,0.22764 -0.0569,0.36991 0.0854,0.14228 0,0.2561 -0.19919,0.2561 -0.19919,0 -0.2561,0.0854 -0.17073,0.19919 0.11382,0.0854 -0.22764,0.96747 -0.76829,1.9065 -1.39431,2.53251 -1.67886,3.61381 -1.3374,4.95121 0.39838,1.47967 1.25203,2.50406 2.61789,3.18698 0.99593,0.5122 1.10975,0.68293 1.10975,1.67886 0,2.87398 2.30487,4.80893 5.97559,5.09348 1.99187,0.14228 2.02033,0.14228 2.56097,1.19513 0.31301,0.62601 0.88211,1.19511 1.42277,1.42276 0.85365,0.34146 3.04471,0.28455 4.06909,-0.14228 0.28455,-0.11382 0.48374,-0.0854 0.48374,0.11382 0,0.73984 1.59349,2.67479 2.76016,3.35771 1.05284,0.62602 1.50812,0.71139 2.95934,0.59757 1.6504,-0.11383 1.73577,-0.0854 2.13414,0.65446 0.19919,0.42683 0.68293,0.99594 1.02439,1.22358 0.85366,0.59756 2.95934,0.5691 4.35365,-0.0854 l 1.13821,-0.51219 1.93495,0.96748 1.9065,0.93902 1.93496,-0.93902 1.9065,-0.96748 1.13821,0.51219 c 1.67886,0.7683 3.32926,0.71139 4.3821,-0.17073 0.45529,-0.39837 0.91057,-0.96748 1.02439,-1.25203 0.11382,-0.42682 0.39838,-0.48374 1.70731,-0.36991 0.85366,0.0569 1.84959,0.0569 2.24797,-0.0569 1.02438,-0.2561 2.67479,-1.76423 3.32926,-3.07317 0.45528,-0.88211 0.68292,-1.0813 1.05284,-0.91057 0.2561,0.11383 1.16667,0.28456 1.99187,0.34147 1.79268,0.14227 2.70324,-0.34147 3.38617,-1.79268 0.45528,-0.93902 0.56911,-0.99593 1.84959,-0.99593 4.126,0 6.77234,-2.24797 6.77234,-5.77642 0,-0.48374 0.14228,-0.76828 0.42683,-0.76828 0.51219,0 2.33333,-1.56504 2.76016,-2.39024 0.36991,-0.71139 0.51219,-3.30081 0.17073,-3.30081 -0.11382,0 -0.22765,-0.14228 -0.22765,-0.28455 0,-0.54065 -2.93088,-6.54471 -3.18698,-6.54471 -0.14227,0 -0.19919,-0.11381 -0.11382,-0.25609 0.0854,-0.11382 -0.0284,-0.48374 -0.2561,-0.76829 -0.36991,-0.45529 -0.39837,-0.48374 -0.25609,-0.0569 0.34146,1.02439 -0.17073,0.45528 -0.88212,-0.91057 -0.39837,-0.79675 -0.76829,-1.42276 -0.85365,-1.42276 -0.0569,0 0.68292,1.70731 1.67885,3.75609 2.9878,6.34551 3.41463,7.54063 3.04471,8.79266 -0.36991,1.19512 -1.62194,2.39024 -2.78861,2.64634 -0.73984,0.17073 -0.79674,0.28455 -0.8252,1.56504 -0.0284,1.84958 -0.88211,3.41462 -2.27642,4.126 -0.88211,0.48374 -1.59349,0.56911 -3.44308,0.54065 -2.30487,-0.0284 -2.36178,0 -2.36178,0.62602 0,0.36991 -0.34147,1.05284 -0.73984,1.53658 -0.88211,1.05284 -1.93496,1.13821 -3.78454,0.313 -0.68293,-0.313 -1.25203,-0.54064 -1.28049,-0.51219 -0.59756,1.56504 -1.9065,3.52845 -2.70324,4.09755 -1.76423,1.19512 -4.29674,0.7683 -4.80894,-0.8252 -0.2561,-0.79674 -0.28455,-0.8252 -0.2561,-0.19919 0,1.25203 -0.65447,3.10163 -1.30894,3.55691 -0.34146,0.22764 -0.93902,0.42683 -1.33739,0.42683 -1.02439,0 -3.64227,-1.3374 -3.78455,-1.93496 -0.0569,-0.28455 -0.0854,-0.22764 -0.0569,0.11382 0.0284,0.48374 -0.31301,0.79675 -1.76423,1.50813 l -1.82113,0.88211 -1.39431,-0.71138 c -1.16666,-0.59756 -1.42276,-0.85366 -1.45122,-1.50813 -0.0569,-0.68292 -0.0569,-0.71137 -0.17073,-0.11382 -0.0854,0.36992 -0.28455,0.59756 -0.45528,0.54065 -0.19919,-0.0569 -0.79674,0.11382 -1.3374,0.39837 -1.50812,0.82521 -2.7317,0.96748 -3.5569,0.42683 -0.79674,-0.51219 -1.36585,-2.30487 -1.13821,-3.49999 0.17073,-0.76829 0.17073,-0.76829 -0.22764,0.0854 -0.65447,1.3943 -3.04471,1.99186 -4.69511,1.13821 -1.05285,-0.54065 -1.59349,-1.19512 -2.44715,-2.93089 l -0.73984,-1.47967 -1.22357,0.54064 c -2.27642,1.05285 -3.92682,0.5122 -4.35365,-1.33739 -0.31301,-1.47967 -0.2561,-1.45122 -1.73577,-1.19512 -1.6504,0.31301 -4.01219,-0.11382 -5.03657,-0.91057 -0.91057,-0.71138 -1.67886,-2.78861 -1.53659,-4.0691 0.0854,-0.79674 0,-1.02438 -0.34146,-1.02438 -1.47967,0 -3.41462,-2.07723 -3.41462,-3.69918 0,-0.73984 1.62194,-4.58129 4.49592,-10.6138 0.96748,-1.99186 1.67886,-3.61381 1.59349,-3.61381 -0.0569,0 -0.2561,0.31301 -0.45528,0.71138 z"
     id="path319"
     style="fill:#000000;stroke:none;stroke-width:1.13363;stroke-dasharray:none" />
  <circle
     style="fill:#008000;fill-opacity:1;stroke:none;stroke-width:2.19589;stroke-dasharray:none;stroke-opacity:1"
     id="path1127"
     cx="212.92859"
     cy="9.6578732"
     r="7.5" />
  <circle
     style="fill:#008080;fill-opacity:1;stroke:none;stroke-width:2.19589;stroke-dasharray:none;stroke-opacity:1"
     id="path1127-3-6-7-5-3"
     cx="187.54698"
     cy="110.64538"
     r="7.5" />
  <circle
     style="fill:#008080;fill-opacity:1;stroke:none;stroke-width:2.19589;stroke-dasharray:none;stroke-opacity:1"
     id="path1127-3-6-7-5-3-9"
     cx="196.21745"
     cy="84.723518"
     r="7.5" />
  <circle
     style="fill:#008080;fill-opacity:1;stroke:none;stroke-width:2.19589;stroke-dasharray:none;stroke-opacity:1"
     id="path1127-3-6-7-5-3-1"
     cx="231.4028"
     cy="84.615448"
     r="7.5" />
  <circle
     style="fill:#008080;fill-opacity:1;stroke:none;stroke-width:2.19589;stroke-dasharray:none;stroke-opacity:1"
     id="path1127-3-6-7-5-3-5"
     cx="240.33986"
     cy="111.70473"
     r="7.5" />
  <circle
     style="fill:#008080;fill-opacity:1;stroke:none;stroke-width:2.19589;stroke-dasharray:none;stroke-opacity:1"
     id="path1127-3-6-7-5-3-2"
     cx="307.56577"
     cy="26.111134"
     r="7.5" />
  <circle
     style="fill:#008080;fill-opacity:1;stroke:none;stroke-width:2.19589;stroke-dasharray:none;stroke-opacity:1"
     id="path1127-3-6-7-5-3-7"
     cx="230.32785"
     cy="32.565632"
     r="7.5" />
  <circle
     style="fill:#008080;fill-opacity:1;stroke:none;stroke-width:2.19589;stroke-dasharray:none;stroke-opacity:1"
     id="path1127-3-6-7-5-3-0"
     cx="197.55708"
     cy="32.618999"
     r="7.5" />
  <circle
     style="fill:#008080;fill-opacity:1;stroke:none;stroke-width:2.19589;stroke-dasharray:none;stroke-opacity:1"
     id="path1127-3-6-7-5-3-93"
     cx="122.75906"
     cy="25.356012"
     r="7.5" />
</svg>
